<?xml version="1.0" encoding="utf-8"?>
<!-- Generator: Adobe Illustrator 14.0.0, SVG Export Plug-In . SVG Version: 6.00 Build 43363)  -->
<!DOCTYPE svg PUBLIC "-//W3C//DTD SVG 1.1//EN" "http://www.w3.org/Graphics/SVG/1.1/DTD/svg11.dtd">
<svg version="1.1" id="Ebene_1" xmlns="http://www.w3.org/2000/svg" xmlns:xlink="http://www.w3.org/1999/xlink" x="0px" y="0px"
	 width="1024px" height="361px" viewBox="0 0 1024 361" enable-background="new 0 0 1024 361" xml:space="preserve">
<path fill="#CA0039" d="M136.981,125.893c0-7.263-2.415-9.332-9.684-9.332c0,0-19.041-0.352-27.68-0.352
	c-7.282,0-30.46,0.352-30.46,0.352c-7.269,0-9.696,2.421-9.696,9.332c0,0-0.34,32.195-0.34,42.564c0,11.771,0.34,49.506,0.34,49.506
	c0,7.597,2.427,9.672,9.696,9.672c0,0,22.838,0.364,27.68,0.364c4.502,0,21.116-0.364,30.46-0.364c7.269,0,9.684-2.409,9.684-9.672
	c0,0,0.353-39.81,0.353-49.506C137.333,160.151,137.333,139.054,136.981,125.893 M530.795,125.893c0-7.263-2.427-9.332-9.696-9.332
	c0,0-16.261-0.352-25.618-0.352c-8.979,0-27.667,0.352-27.667,0.352c-7.27,0-9.684,2.421-9.684,9.332c0,0-0.352,30.114-0.352,42.564
	c0,13.859,0.352,49.506,0.352,49.506c0,7.597,2.415,9.672,9.684,9.672c0,0,17.645,0.364,25.945,0.364
	c9.004,0,27.34-0.364,27.34-0.364c7.27,0,9.696-2.409,9.696-9.672c0,0,0.34-47.765,0.34-49.506
	C531.135,160.861,530.795,139.054,530.795,125.893z M958.496,116.562c0,0-19.015-0.352-32.17-0.352
	c-14.186,0-29.429,0.352-29.429,0.352c-7.243,0-9.684,2.069-9.684,9.332c0,0,0,6.583,0,9.696c0,3.817,0,9.69,0,9.69
	c0,7.275,2.44,9.696,9.684,9.696c0,0,25.958,0.333,29.429,0.333c10.715,0,21.43,0,32.17-0.333c7.27,0,9.357-2.421,9.685-9.696
	c0,0,0.352-5.194,0.352-9.69c0-5.188-0.352-9.696-0.352-9.696C967.854,118.63,966.47,116.562,958.496,116.562z M1021.479,173.658
	c0,12.803-5.533,15.224-14.513,15.224H896.897c-7.243,0-9.684,2.087-9.684,9.696c0,0,0,4.842,0,8.992c0,3.811,0,8.998,0,8.998
	c0,7.615,4.15,11.067,11.771,11.067c0,0,23.19,0,30.812,0c6.213,0,25.254,0,25.254,0c7.948,0,9.684-1.729,9.684-8.992
	s1.031-10.395,9.684-10.395c0,0,26.31,0,18.688,0c-7.27,0,18.688,0,18.688,0c7.621,0,9.684,2.434,9.684,9.715v9.672
	c0,24.234-9.684,33.918-33.554,33.918c0,0-43.941,0.352-64.013,0.352c-16.626,0-59.537-0.352-59.537-0.352
	c-24.222,0-33.905-9.332-33.905-33.918c0,0-0.353-53.638-0.353-57.437c0-7.269,0.353-53.638,0.353-53.638
	c0-24.229,9.684-33.925,33.905-33.925c0,0,44.294-0.346,60.568-0.346c17.656,0,62.981,0.346,62.981,0.346
	c23.87,0,33.227,9.351,33.554,33.925c0,0,0.353,14.551,0.353,28.02C1021.831,157.032,1021.479,173.658,1021.479,173.658z
	 M194.769,227.636c0,24.234-9.684,33.918-33.905,33.918c0,0-47.752,0.352-64.366,0.352c-14.878,0-61.259-0.352-61.259-0.352
	c-24.222,0-33.906-9.684-33.906-33.918V9.965c0-7.263,2.78-9.684,9.684-9.684c0,0,10.388,0,18.688,0c8.652,0,20.072,0,20.072,0
	c7.269,0,9.684,2.421,9.684,9.684V72.62c0,7.263,2.427,9.671,9.696,9.671l91.707,0.346c24.562,0,33.905,9.696,33.905,33.925
	c0,0,0.353,36.339,0.353,51.896C195.122,184.04,194.769,227.636,194.769,227.636z M372.636,135.589c0,0-12.098,0.339-18.336,0.339
	c-5.534,0-16.953-0.339-16.953-0.339c-8.3,0-9.684-2.767-9.684-10.728c0-6.911-2.427-8.3-9.357-8.3c0,0-8.652,0-12.451,0
	c-4.842,0-12.111,0-12.111,0c-7.269,0-9.696,1.723-9.696,9.332V251.87c0,7.608-2.415,9.684-9.684,9.684
	c0,0-14.891,0.352-20.424,0.352c-5.169,0-18.336-0.352-18.336-0.352c-7.608,0-9.684-2.415-9.684-9.684V92.333
	c0-7.608,2.415-9.696,9.684-9.696c0,0,35.641-0.346,61.938-0.346c25.278,0,56.417,0.346,56.417,0.346
	c25.605,0,31.831,7.974,31.831,30.46v11.765C385.791,133.521,380.949,135.589,372.636,135.589z M588.923,227.636
	c0,24.234-9.696,33.918-33.918,33.918c0,0-41.866,0.352-60.895,0.352c-18.688,0-60.203-0.352-60.203-0.352
	c-23.895,0-33.579-9.684-33.579-33.918c0,0-0.353-70.591-0.353-59.178c0,11.771,0.353-51.896,0.353-51.896
	c0-24.229,9.684-33.925,33.579-33.925c0,0,46.356-0.346,60.203-0.346c14.538,0,60.895,0.346,60.895,0.346
	c24.222,0,33.918,9.696,33.918,33.925c0,0,0.353,39.792,0.353,51.896C589.275,181.273,588.923,227.636,588.923,227.636z
	 M802.776,227.636c0,24.586-9.684,33.591-33.905,33.918c-23.19,0.352-41.879,0.352-60.216,0.352
	c-17.656,0-58.152-0.352-58.152-0.352c-23.863,0-31.473-10.363-31.473-26.297v-17.293c0-7.281,2.063-9.715,9.696-9.715
	c0,0,24.543,0,18.683,0c-6.59,0,19.72,0,19.72,0c7.621,0,9.356,2.434,9.356,9.715c0,7.597,3.446,9.672,10.715,9.672
	c0,0,29.756,0.364,24.574,0.364c-4.502,0,23.19-0.364,23.19-0.364c7.949,0,10.716-3.119,11.067-11.067c0,0,0.353-7.263,0.353-9.345
	c0-2.075-0.353-9.689-0.353-9.689c-0.352-7.275-2.414-9.684-9.684-9.684h-84.438c-24.228,0-33.572-9.697-33.924-34.265
	c0,0-0.34-17.657-0.34-19.034c0-5.54,0.34-17.99,0.34-17.99c0.352-25.272,9.696-33.925,33.924-33.925c0,0,39.088-0.346,57.097-0.346
	c18.336,0,62.63,0.346,62.63,0.346c20.751,0,29.756,12.47,29.756,29.762v13.495c0,7.282-2.063,9.696-9.684,9.696
	c0,0-12.124,0.339-19.393,0.339c-7.244,0-16.953-0.339-16.953-0.339c-7.948,0-9.332-2.069-9.332-9.696
	c0-6.911-1.383-8.986-9.005-9.332c0,0-17.305-0.698-27.667-0.698c-7.295,0-27.015,0.698-27.015,0.698
	c-7.596,0.346-9.331,2.069-9.684,9.332c0,0-0.352,5.194-0.352,8.659c0,3.113,0.352,7.955,0.352,7.955
	c0.353,7.615,3.823,10.395,11.067,10.395l85.142,0.685c24.222,0.346,33.905,10.042,33.905,34.265c0,20.398,0,11.413,0,19.373
	C802.776,214.833,802.776,227.636,802.776,227.636z"/>
<polyline fill="#CA0039" points="20.072,309.695 -0.289,309.695 -0.289,300.565 51.84,300.565 51.84,309.695 31.479,309.695 
	31.479,358.681 20.072,358.681 20.072,309.695 "/>
<path fill="#CA0039" d="M141.333,331.993c-0.754-4.263-5.219-7.771-11.319-7.771c-9.859,0-14.173,6.778-14.173,13.922
	c0,7.155,3.849,13.935,13.017,13.935c8.237,0,10.489-3.271,12.727-9.105h11.08c-2.453,17.104-19.783,17.343-22.65,17.343
	c-18.261,0-25.278-10.815-25.278-22.172c0-13.293,9.483-22.16,25.278-22.16c6.163,0,20.198,2.088,22.424,16.01H141.333"/>
<path fill="#CA0039" d="M160.386,299.597h10.627v23.795h0.151c3.471-4.452,8.854-7.332,16.11-7.332
	c8.791,0,17.343,3.22,17.343,14.412v28.209h-10.64v-24.775c0-4.465-1.459-9.559-10.25-9.559c-5.546,0-12.715,3.119-12.715,12.011
	v22.323h-10.627V299.597"/>
<path fill="#CA0039" d="M215.332,317.115h10.64v6.276h0.138c3.484-4.478,8.866-7.383,16.11-7.383c8.803,0,17.343,3.22,17.343,14.438
	v28.234h-10.64v-24.775c0-4.465-1.459-9.583-10.237-9.583c-5.559,0-12.714,3.144-12.714,12.01v22.349h-10.64V317.115"/>
<path fill="#CA0039" d="M270.629,299.597h10.64v8.854h-10.64V299.597z M270.629,317.279h10.64v41.451h-10.64V317.279z"/>
<polyline fill="#CA0039" points="292.336,299.597 302.976,299.597 302.976,332.798 320.167,317.166 334.97,317.166 318.017,331.817 
	338.504,358.681 324.167,358.681 309.679,338.998 302.976,344.771 302.976,358.681 292.336,358.681 292.336,299.597 "/>
<path fill="#CA0039" d="M372.787,325.277h-8.401l-0.063-8.162l8.464,0.051v-7.144c0-4.804,1.17-11.067,12.25-11.067
	c4.628,0,7.093,0.139,9.558,0.327v8.125c-1.157-0.164-3.471-0.34-5.458-0.34c-4.854,0-5.709,1.232-5.709,5.144v4.93h11.168v8.124
	h-11.168v33.416h-10.64V325.277"/>
<path fill="#CA0039" d="M401.222,317.141l10.602-0.025l0.012,23.015c0,6.615,1.472,11.558,10.552,11.558
	c4.716,0,12.425-3.244,12.425-12.45l-0.05-22.122h10.665v41.565h-10.615v-6.012h-0.151c-3.471,4.641-8.879,7.646-16.123,7.646
	c-8.766,0-17.331-3.32-17.331-15.935L401.222,317.141 M428.097,300.49h10.64v9.13h-10.64V300.49z M407.988,300.49h10.627v9.13
	h-10.627V300.49z"/>
<path fill="#CA0039" d="M456.243,317.166h10.64v8.074h0.151c2.854-4.717,7.244-9.156,15.418-9.156c1.61,0,2.842,0.139,4.238,0.378
	v10.652c-2.943-0.919-4.942-0.994-6.792-0.994c-5.395,0-13.016,2.893-13.016,12.526v20.034h-10.64V317.166"/>
<path fill="#CA0039" d="M516.207,358.681h12.476l5.71-14.413h25.882l5.785,14.413h12.865l-24.499-58.115h-13.732L516.207,358.681
	 M537.851,335.163l9.558-24.486l9.407,24.486H537.851z"/>
<path fill="#CA0039" d="M584.685,317.141h10.627v22.989c0,6.615,1.484,11.558,10.577,11.558c4.69,0,12.4-3.244,12.4-12.45v-22.097
	h10.64v41.54h-10.64v-6.012h-0.151c-3.483,4.641-8.879,7.646-16.098,7.646c-8.778,0-17.355-3.32-17.355-15.935V317.141"/>
<path fill="#CA0039" d="M646.705,325.265h-8.477v-8.124h8.477V302.2h10.614v14.94h11.117v8.124h-11.117V343.4
	c0,4.955,0.227,7.634,3.873,7.634c2.616,0,5.081-0.063,7.622-0.164v8.149c-2.843,0.402-4.931,0.642-8.175,0.642
	c-12.929,0-13.935-4.867-13.935-13.017V325.265"/>
<path fill="#CA0039" d="M673.744,338.144c0,11.356,7.018,22.172,25.278,22.172s25.278-10.815,25.278-22.172
	c0-11.344-7.018-22.16-25.278-22.16S673.744,326.8,673.744,338.144 M684.836,338.144c0-7.144,3.849-13.922,14.187-13.922
	s14.186,6.778,14.186,13.922c0,7.155-3.848,13.935-14.186,13.935S684.836,345.299,684.836,338.144z"/>
<path fill="#CA0039" d="M764.52,333.931c0-4.302-0.528-9.559-10.011-9.559c-3.697,0-11.092,2.113-11.092,11.193v23.115h-10.64
	v-41.515h10.64v6.288h0.15c3.472-4.489,8.854-7.37,16.098-7.37c4.779,0,11.57,0.843,14.413,7.659
	c2.615-3.836,8.023-7.659,16.575-7.659c6.564,0,16.248,2.327,16.248,15.042v27.555h-10.614v-24.75c0-4.302-0.553-9.559-10.035-9.559
	c-3.698,0-11.093,2.113-11.093,11.193v23.115h-10.64V333.931"/>
<path fill="#CA0039" d="M816.007,338.144c0,11.356,7.018,22.172,25.278,22.172s25.278-10.815,25.278-22.172
	c0-11.344-7.018-22.16-25.278-22.16S816.007,326.8,816.007,338.144 M827.1,338.144c0-7.144,3.848-13.922,14.186-13.922
	s14.187,6.778,14.187,13.922c0,7.155-3.849,13.935-14.187,13.935S827.1,345.299,827.1,338.144z"/>
<path fill="#CA0039" d="M874.311,358.756h10.614v-5.747h0.151c0.779,2.502,7.193,7.307,15.67,7.307
	c15.544,0,22.336-11.558,22.336-22.248c0-10.551-6.792-22.108-22.336-22.108c-6.414,0-12.501,2.05-15.67,7.093h-0.151v-23.48
	h-10.614V358.756 M898.181,324.297c10.036,0,13.809,6.854,13.809,13.771c0,7.068-3.772,13.935-13.809,13.935
	c-9.936,0-13.708-6.866-13.708-13.935C884.473,331.15,888.245,324.297,898.181,324.297z"/>
<path fill="#CA0039" d="M931.658,299.597h10.64v9.105h-10.64V299.597z M931.658,317.141h10.64v41.553h-10.64V317.141z"/>
<rect x="955.076" y="299.597" fill="#CA0039" width="10.639" height="59.084"/>
<path fill="#CA0039" d="M1023.717,340.872v-1.56c0-12.035-6.941-23.329-25.052-23.329c-14.487,0-24.599,8.766-24.599,22.563
	c0,10.954,6.866,21.77,25.303,21.77c14.488,0,20.299-7.886,22.914-12.689c-0.025,0.101-11.796-0.025-11.821,0
	c-1.258,1.182-5.03,4.93-11.419,4.93c-10.539,0-13.633-7.093-13.859-11.684H1023.717 M985.209,333.717
	c1.76-8.389,8.702-10.74,13.632-10.74c5.257,0,12.501,2.49,13.81,10.74H985.209z"/>
<path fill="#CA0039" d="M97.894,340.91v-1.56c0-12.048-6.93-23.342-25.04-23.342c-14.488,0-24.586,8.778-24.586,22.563
	c0,10.966,6.854,21.781,25.278,21.781c14.513,0,20.311-7.897,22.914-12.701c-0.013,0.101-11.771-0.025-11.797,0
	c-1.27,1.182-5.056,4.93-11.432,4.93c-10.539,0-13.633-7.093-13.859-11.671H97.894 M59.385,333.767
	c1.773-8.4,8.715-10.74,13.646-10.74c5.244,0,12.476,2.478,13.796,10.74H59.385z"/>
</svg>
